<?xml version="1.0" encoding="iso-8859-1"?>
<!-- Generator: Adobe Illustrator 19.0.0, SVG Export Plug-In . SVG Version: 6.00 Build 0)  -->
<svg version="1.1" id="Layer_1" xmlns="http://www.w3.org/2000/svg" xmlns:xlink="http://www.w3.org/1999/xlink" x="0px" y="0px"
	 viewBox="0 0 480 480" style="enable-background:new 0 0 480 480;" xml:space="preserve">
<g>
	<g id="XMLID_38_">
		<g>
			<path style="fill:#AFB6BB;" d="M325,260c5.498,0,10,4.502,10,10v10c0,5.498-4.502,10-10,10h-90c-5.498,0-10-4.502-10-10V165
				c0-5.498,4.502-10,10-10h10c5.498,0,10,4.502,10,10v95H325z"/>
			<path style="fill:#E7ECED;" d="M425,240c0,49.805-19.697,95-51.797,128.203C339.697,403.203,292.402,425,240,425
				s-99.707-21.797-133.203-56.797C74.707,335,55,289.805,55,240c0-102.207,82.793-185,185-185C342.197,55,425,137.793,425,240z
				 M335,280v-10c0-5.498-4.502-10-10-10h-70v-95c0-5.498-4.502-10-10-10h-10c-5.498,0-10,4.502-10,10v115c0,5.498,4.502,10,10,10
				h90C330.498,290,335,285.498,335,280z"/>
			<path style="fill:#FFD248;" d="M373.203,368.203C405.303,335,425,289.805,425,240c0-102.207-82.803-185-185-185
				C137.793,55,55,137.793,55,240c0,49.805,19.707,95,51.797,128.203C140.293,403.203,187.598,425,240,425
				S339.697,403.203,373.203,368.203z M240,10c127.002,0,230,102.998,230,230S367.002,470,240,470S10,367.002,10,240
				S112.998,10,240,10z"/>
		</g>
		<g>
			<path style="fill:#231F20;" d="M240,0C107.664,0,0,107.664,0,240s107.664,240,240,240s240-107.664,240-240S372.336,0,240,0z
				 M240,460c-121.309,0-220-98.691-220-220S118.691,20,240,20s220,98.691,220,220S361.309,460,240,460z"/>
			<path style="fill:#231F20;" d="M377.895,102.102C341.071,65.279,292.1,45,240,45c-52.103,0-101.076,20.279-137.899,57.102
				C65.279,138.924,45,187.898,45,240c0,50.72,19.393,98.718,54.572,135.117c17.918,18.724,39.029,33.452,62.744,43.778
				C186.86,429.582,212.997,435,240,435c27.002,0,53.138-5.419,77.68-16.104c23.712-10.325,44.823-25.054,62.713-43.742
				C415.606,338.728,435,290.73,435,240C435,187.898,414.72,138.925,377.895,102.102z M250,414.713V370h-20v44.714
				c-41.004-2.276-79.091-18.534-109.018-46.554l26.089-26.089l-14.143-14.143l-25.795,25.796
				C82.063,324.606,67.458,288.403,65.293,250H110v-20H65.29c2.086-37.313,15.819-72.425,39.462-101.105l28.176,28.177
				l14.143-14.143l-28.731-28.731C148.737,84.776,187.97,67.64,230,65.29V110h20V65.292c43.237,2.448,82.322,20.663,111.59,48.976
				l-28.661,28.661l14.143,14.143l28.099-28.099c22.893,27.82,37.373,62.803,39.538,101.027H370v20h44.707
				c-2.164,38.398-16.762,74.593-41.841,103.724l-25.795-25.795l-14.143,14.143l26.09,26.09
				C329.105,396.17,291.009,412.435,250,414.713z"/>
			<path style="fill:#231F20;" d="M345,280v-10c0-11.028-8.972-20-20-20h-60v-85c0-11.028-8.972-20-20-20h-10
				c-11.028,0-20,8.972-20,20v115c0,11.028,8.972,20,20,20h90C336.028,300,345,291.028,345,280z M235,280V165h10v95
				c0,5.522,4.477,10,10,10h70l0.001,10H235z"/>
		</g>
	</g>
</g>
<g>
</g>
<g>
</g>
<g>
</g>
<g>
</g>
<g>
</g>
<g>
</g>
<g>
</g>
<g>
</g>
<g>
</g>
<g>
</g>
<g>
</g>
<g>
</g>
<g>
</g>
<g>
</g>
<g>
</g>
</svg>
